<svg xmlns="http://www.w3.org/2000/svg" viewBox="0 0 233.64 161.62"><defs><style>.cls-1{fill:#a89968;}.cls-2{fill:#ba0c2f;}</style></defs><g id="Layer_2" data-name="Layer 2"><g id="Layer_1-2" data-name="Layer 1"><path class="cls-1" d="M106.34,26H58.76v9.69l5.11,2.7v67h42.47a4.93,4.93,0,0,0,4.93-4.93V30.92A4.93,4.93,0,0,0,106.34,26"/><path class="cls-1" d="M186.05,26a4.93,4.93,0,0,0-4.92,4.93V102.4a38,38,0,0,1-38,38H70a43.52,43.52,0,0,0,37.22,21.26H185a43.53,43.53,0,0,0,43.54-43.53V38.38l5.11-2.7V26Z"/><path class="cls-2" d="M137.88,0H0V9.69l7.08,3.74V119L0,122.75v9.69H137.88a32.9,32.9,0,0,0,32.89-32.89V32.89A32.9,32.9,0,0,0,137.88,0M123,101.9a11.77,11.77,0,0,1-11.77,11.77H51.91v-96h59.28A11.77,11.77,0,0,1,123,29.43Z"/></g></g></svg>